<svg width="32" height="32" viewBox="0 0 32 32" fill="none" xmlns="http://www.w3.org/2000/svg">
    <path d="M15.5 32C13.9887 32.004 12.4914 31.7109 11.0943 31.1375C9.69722 30.564 8.42784 29.7216 7.35916 28.6585C6.29047 27.5954 5.44355 26.3327 4.86707 24.9429C4.2906 23.5532 3.99594 22.0638 4.00004 20.5604C4.00004 14.3768 15.5 0 15.5 0C15.5 0 27 14.3768 27 20.5604C27.0041 22.0638 26.7094 23.5532 26.1329 24.9429C25.5565 26.3327 24.7095 27.5954 23.6408 28.6585C22.5722 29.7216 21.3028 30.564 19.9057 31.1375C18.5086 31.7109 17.0113 32.004 15.5 32Z" fill="#81C14B"/>
</svg>
