<svg width="32" height="32" viewBox="0 0 32 32" fill="none" xmlns="http://www.w3.org/2000/svg">
    <path d="M15.7222 30C14.4445 30.0036 13.1787 29.7471 11.9976 29.2453C10.8165 28.7436 9.74332 28.0064 8.83984 27.0762C7.93636 26.146 7.22036 25.0411 6.733 23.8251C6.24564 22.609 5.99653 21.3058 6 19.9903C6 14.5797 15.7222 2 15.7222 2C15.7222 2 25.4444 14.5797 25.4444 19.9903C25.4479 21.3058 25.1988 22.609 24.7114 23.8251C24.2241 25.0411 23.5081 26.146 22.6046 27.0762C21.7011 28.0064 20.628 28.7436 19.4469 29.2453C18.2657 29.7471 16.9999 30.0036 15.7222 30Z" fill="#81C14B"/>
</svg>
