<svg width="145" height="24" viewBox="0 0 145 24" fill="none" xmlns="http://www.w3.org/2000/svg">
    <g clip-path="url(#clip0_103_73)">
        <path d="M7.4 22.1C3.3 22.1 0 18.8 0 14.7C0 10.7 7.4 1.39999 7.4 1.39999C7.4 1.39999 14.8 10.7 14.8 14.7C14.8 18.8 11.5 22.1 7.4 22.1C7.5 22.1 7.5 22.1 7.4 22.1Z" fill="#81C14B"/>
        <path d="M24.7 14.6V14.7C24.7 16.9 25.8 18.1 27.7 18.1C29 18.1 30.3 17.6 31.3 16.7L32.7 18.9C31.2 20.2 29.3 20.9 27.4 20.9C23.4 20.9 20.7 18 20.7 13.6C20.7 11.1 21.2 9.4 22.5 8C23.6 6.7 25.2 6 26.9 6.1C28.4 6 29.9 6.6 31 7.6C32.3 8.9 32.9 10.8 32.9 13.8V14.7L24.7 14.6ZM29 11.7C29.1 11 28.9 10.2 28.6 9.6C28.3 9 27.6 8.7 27 8.8C25.6 8.8 24.8 9.9 24.8 11.9V12H29.1L29 11.7Z" fill="#333333"/>
        <path d="M35.4 20.5V4.6C35.4 4 35.4 3.4 35.4 2.8C35.4 2.2 35.3 1.7 35.2 0.9L38.9 0C39 0.6 39 1.2 39.1 1.9C39.1 2.7 39.2 3.6 39.2 4.6V20.5H35.4ZM43.9 20.5L39.2 12.5L42.8 6.4H47.2L42.7 12.3L48.2 20.5H43.9Z" fill="#333333"/>
        <path d="M54.2 20.9C52.2 20.8 50.2 20.3 48.5 19.3L49.8 16.6C50.9 17.3 52.9 18.2 54.5 18.2C55.4 18.3 56.3 17.6 56.4 16.6C56.4 15.6 55.7 15.1 54.2 14.9L52.5 14.6C51.5 14.4 50.6 13.9 49.9 13.2C49.4 12.5 49.1 11.6 49.1 10.7C49.1 7.90001 51.3 6.10001 54.5 6.10001C56.3 6.10001 58 6.60001 59.5 7.40001L58.3 9.90001C57.3 9.30001 56.1 8.90001 54.9 8.90001C53.8 8.90001 53.1 9.50001 53.1 10.3C53.1 11 53.6 11.4 54.9 11.7L56.6 12.1C58.3 12.5 58.9 13.1 59.4 13.7C59.9 14.4 60.2 15.2 60.2 16.1C60.2 18.9 57.8 20.9 54.2 20.9Z" fill="#333333"/>
        <path d="M53 24L52.7 22.6L56.9 21.6L57.3 23.6L53 24Z" fill="#333333"/>
        <path d="M62.7 20.5V6.6L66.4 6V20.4H62.7V20.5Z" fill="#333333"/>
        <path d="M64.6 4.80001C63.3 4.80001 62.3 3.80001 62.3 2.50001C62.3 1.20001 63.3 0.200012 64.6 0.200012C65.8 0.200012 66.8 1.20001 66.8 2.50001C66.8 3.80001 65.8 4.80001 64.6 4.80001Z" fill="#333333"/>
        <path d="M74.4 20.9C72.4 20.8 70.4 20.3 68.7 19.3L70 16.6C71.1 17.3 73.1 18.2 74.7 18.2C75.6 18.3 76.5 17.6 76.6 16.6C76.6 15.6 75.9 15.1 74.4 14.9L72.7 14.6C71.7 14.4 70.8 13.9 70.1 13.2C69.6 12.5 69.3 11.6 69.3 10.7C69.3 7.90001 71.5 6.10001 74.7 6.10001C76.5 6.10001 78.2 6.60001 79.7 7.40001L78.5 9.90001C77.5 9.30001 76.3 8.90001 75.1 8.90001C74 8.90001 73.3 9.50001 73.3 10.3C73.3 11 73.8 11.4 75.1 11.7L76.8 12.1C78.5 12.5 79.1 13.1 79.6 13.7C80.1 14.4 80.4 15.2 80.4 16.1C80.4 18.9 78 20.9 74.4 20.9Z" fill="#81C14B"/>
        <path d="M93.1 18.8C91.9 20.1 90.2 20.9 88.5 20.8C84.7 20.8 82.2 17.9 82.2 13.5C82.2 9.09999 84.7 6.09999 88.5 6.09999C90.3 5.99999 92.1 6.79999 93.3 8.19999C94.4 9.49999 94.9 11.1 94.9 13.4C94.9 15.8 94.3 17.5 93.1 18.8ZM85.6 5.09999C84.4 5.09999 83.5 4.09999 83.5 2.99999C83.5 1.79999 84.5 0.899994 85.6 0.899994C86.8 0.899994 87.7 1.89999 87.7 2.99999C87.7 4.19999 86.7 5.09999 85.6 5.09999ZM90.1 9.59999C89.4 8.69999 88.1 8.59999 87.3 9.29999C87 9.59999 86.8 9.89999 86.6 10.3C86.1 12.5 86.1 14.8 86.7 17C87 17.7 87.8 18.2 88.6 18.1C90.2 18.1 90.9 16.7 90.9 13.3C90.9 11.5 90.6 10.2 90.1 9.59999ZM91.4 5.09999C90.2 5.09999 89.3 4.09999 89.3 2.99999C89.3 1.79999 90.3 0.899994 91.4 0.899994C92.6 0.899994 93.5 1.89999 93.5 2.99999C93.5 4.19999 92.5 5.09999 91.4 5.09999Z" fill="#81C14B"/>
        <path d="M106.7 20.5H96.3V18.2L102.9 8.99999H96.8V6.39999H107.3V8.89999L101.1 17.9H107.6L106.7 20.5Z" fill="#81C14B"/>
        <path d="M113.9 20.8C112.3 20.8 111.1 20.1 110.6 18.9C110.3 18.2 110.3 17.8 110.3 15.7V5.20001C110.3 3.80001 110.3 2.40001 110.1 1.00001L113.9 0.100006C114.1 1.30001 114.1 2.50001 114.1 3.80001V14.8C114.1 17.2 114.1 17.6 114.3 17.9C114.5 18.2 114.7 18.3 115 18.3C115.1 18.3 115.3 18.3 115.4 18.2L116 20.4C115.4 20.7 114.7 20.8 113.9 20.8Z" fill="#81C14B"/>
        <path d="M126.6 20.9C126.1 20.6 125.7 20.1 125.5 19.5C124.5 20.4 123.2 20.9 121.8 20.8C119.8 20.8 118.1 19.9 117.6 18.5C117.3 17.6 117.2 16.6 117.3 15.7V6.69999L120.9 5.99999V15C120.8 15.8 120.9 16.6 121.2 17.3C121.5 17.7 122 18 122.5 18C123.4 18 124.3 17.5 124.8 16.7V6.79999L128.3 6.09999V16.9C128.3 17.8 128.6 18.7 129.2 19.5L126.6 20.9ZM119.8 5.09999C118.6 5.09999 117.7 4.09999 117.7 2.99999C117.7 1.79999 118.7 0.899994 119.8 0.899994C121 0.899994 121.9 1.89999 121.9 2.99999C122 4.19999 121 5.09999 119.8 5.09999ZM125.8 5.09999C124.6 5.09999 123.7 4.09999 123.7 2.99999C123.7 1.79999 124.7 0.899994 125.8 0.899994C127 0.899994 127.9 1.89999 127.9 2.99999C127.9 4.19999 127 5.09999 125.8 5.09999Z" fill="#81C14B"/>
        <path d="M131.4 20.5V4.6C131.4 3.4 131.3 2.2 131.2 0.9L134.9 0C135.1 1.5 135.2 3.1 135.1 4.6V20.5H131.4ZM139.9 20.5L135.2 12.5L138.8 6.4H143.2L138.7 12.3L144.2 20.5H139.9Z" fill="#81C14B"/>
    </g>
    <defs>
        <clipPath id="clip0_103_73">
            <rect width="144.2" height="24" fill="white"/>
        </clipPath>
    </defs>
</svg>
